<svg width="26" height="31" viewBox="0 0 26 31" fill="none" xmlns="http://www.w3.org/2000/svg">
<path d="M10.1667 27.7499H15.8333C15.8333 29.3083 14.5583 30.5833 13 30.5833C11.4417 30.5833 10.1667 29.3083 10.1667 27.7499ZM25.75 24.9166V26.3333H0.25V24.9166L3.08333 22.0833V13.5833C3.08333 9.19159 5.91667 5.36659 10.1667 4.09159V3.66659C10.1667 2.10825 11.4417 0.833252 13 0.833252C14.5583 0.833252 15.8333 2.10825 15.8333 3.66659V4.09159C20.0833 5.36659 22.9167 9.19159 22.9167 13.5833V22.0833L25.75 24.9166ZM20.0833 13.5833C20.0833 9.61658 16.9667 6.49992 13 6.49992C9.03333 6.49992 5.91667 9.61658 5.91667 13.5833V23.4999H20.0833V13.5833Z" fill="white"/>
</svg>
